<?xml version="1.0" standalone="no"?>
<!DOCTYPE svg PUBLIC "-//W3C//DTD SVG 20010904//EN"
 "http://www.w3.org/TR/2001/REC-SVG-20010904/DTD/svg10.dtd">
<svg version="1.0" xmlns="http://www.w3.org/2000/svg"
 width="364.000000pt" height="366.000000pt" viewBox="0 0 364.000000 366.000000"
 preserveAspectRatio="xMidYMid meet">

<g transform="translate(0.000000,366.000000) scale(0.100000,-0.100000)"
fill="#000000" stroke="none">
<path d="M1120 3305 l0 -225 210 0 210 0 0 70 0 69 -117 3 -118 3 0 70 0 70
118 3 117 3 0 79 0 80 -210 0 -210 0 0 -225z"/>
<path d="M1610 3448 l1 -83 75 -55 c123 -90 123 -90 16 -90 l-92 0 0 -70 0
-70 215 0 216 0 -3 72 -3 72 -79 61 c-44 34 -82 67 -84 73 -3 9 20 12 82 12
l86 0 0 80 0 80 -215 0 -215 0 0 -82z"/>
<path d="M2110 3446 l0 -83 85 -64 c46 -35 85 -67 85 -71 0 -5 -38 -8 -85 -8
l-85 0 0 -70 0 -70 210 0 210 0 -1 73 0 72 -84 65 c-47 36 -85 68 -85 73 0 4
38 7 85 7 l85 0 0 80 0 80 -210 0 -210 0 0 -84z"/>
<path d="M630 2840 c0 -10 4 -63 10 -117 5 -54 17 -179 25 -278 8 -99 20 -225
25 -280 5 -55 16 -181 25 -280 9 -99 22 -250 30 -335 8 -85 21 -236 30 -335 8
-99 20 -227 25 -285 33 -346 40 -432 40 -468 0 -23 4 -43 10 -47 5 -3 227 -66
493 -140 l484 -134 134 38 c74 21 295 82 491 136 l357 98 5 61 c4 34 13 138
21 231 8 94 20 220 25 280 10 113 18 203 70 785 16 184 34 382 40 440 10 108
36 402 45 525 4 39 8 82 11 98 l6 27 -1201 0 c-1186 0 -1201 0 -1201 -20z
m2175 -232 c-6 -61 -29 -321 -80 -893 -19 -220 -44 -497 -55 -615 -10 -118
-24 -278 -30 -355 -7 -77 -15 -149 -20 -160 -5 -15 -29 -26 -86 -42 -318 -86
-635 -174 -658 -183 -15 -5 -32 -10 -37 -10 -5 0 -9 63 -9 149 0 83 -4 152 -9
155 -4 3 -141 42 -302 86 -162 45 -302 83 -311 86 -12 4 -18 21 -22 67 -3 34
-13 132 -21 217 -8 85 -15 167 -15 183 l0 28 158 -3 157 -3 10 -117 c6 -64 12
-119 15 -121 7 -7 305 -87 324 -87 14 0 16 26 16 230 l0 230 -340 0 c-187 0
-340 3 -340 8 0 4 -7 70 -15 147 -8 77 -15 143 -15 148 0 4 160 7 355 7 l355
0 0 150 0 150 -364 0 -364 0 -6 38 c-3 20 -8 69 -11 107 -3 39 -8 89 -12 113
l-5 42 381 0 381 0 0 150 0 150 490 0 490 0 -5 -52z"/>
</g>
</svg>
