<?xml version="1.0" standalone="no"?>
<!DOCTYPE svg PUBLIC "-//W3C//DTD SVG 20010904//EN"
 "http://www.w3.org/TR/2001/REC-SVG-20010904/DTD/svg10.dtd">
<svg version="1.0" xmlns="http://www.w3.org/2000/svg"
 width="364.000000pt" height="366.000000pt" viewBox="0 0 364.000000 366.000000"
 preserveAspectRatio="xMidYMid meet">

<g transform="translate(0.000000,366.000000) scale(0.100000,-0.100000)"
fill="#000000" stroke="none">
<path d="M1545 3406 c-318 -69 -572 -250 -723 -517 -49 -87 -91 -195 -113
-289 -108 -472 110 -949 541 -1182 89 -48 161 -72 193 -64 32 8 40 39 35 152
l-3 82 -77 -6 c-149 -10 -224 28 -284 141 -49 95 -70 122 -116 152 -40 26 -50
58 -22 69 56 21 132 -18 191 -98 75 -102 133 -134 226 -122 66 9 84 20 92 54
3 15 16 45 29 67 l24 39 -83 17 c-228 46 -354 180 -385 410 -19 140 1 246 64
342 35 52 37 59 27 94 -15 55 -13 118 6 186 l16 59 54 -5 c54 -6 159 -48 213
-87 27 -19 30 -20 97 -4 91 22 304 22 398 1 l70 -16 46 30 c74 47 166 80 212
77 39 -3 42 -6 53 -43 14 -44 16 -175 5 -215 -6 -18 -1 -33 15 -55 13 -17 36
-58 51 -90 55 -119 39 -350 -33 -473 -64 -108 -175 -180 -329 -211 -48 -10
-84 -21 -78 -24 6 -4 21 -28 33 -54 22 -44 23 -63 25 -245 2 -209 6 -228 50
-228 12 0 50 12 86 26 189 77 362 220 479 397 353 534 159 1254 -415 1538
-161 80 -249 101 -445 105 -110 2 -185 -1 -225 -10z"/>
<path d="M334 1160 c-188 -40 -283 -198 -284 -471 0 -204 51 -338 156 -408
121 -80 328 -90 477 -24 l57 26 -2 236 -3 236 -157 3 -158 3 0 -86 0 -85 65 0
65 0 0 -89 c0 -50 -4 -93 -10 -96 -21 -13 -107 -16 -148 -6 -107 29 -147 109
-147 296 0 104 3 127 23 170 31 67 56 91 115 111 49 16 169 15 253 -2 l31 -6
18 77 c20 86 20 86 -45 105 -47 15 -255 21 -306 10z"/>
<path d="M1627 1134 c-4 -4 -7 -209 -7 -456 l0 -448 95 0 95 0 0 195 0 195
135 0 135 0 0 -195 0 -196 93 3 92 3 0 450 0 450 -90 0 -90 0 -3 -167 -2 -168
-135 0 -135 0 -2 168 -3 167 -85 3 c-47 1 -89 0 -93 -4z"/>
<path d="M3020 1135 c0 -3 0 -206 0 -452 l0 -448 64 -3 c61 -3 66 -1 71 21 l6
23 60 -30 c112 -55 263 -35 317 41 43 61 56 121 56 263 1 131 0 137 -29 195
-42 84 -98 118 -193 117 -37 0 -87 -7 -111 -16 -24 -9 -47 -16 -52 -16 -5 0
-9 70 -9 155 l0 155 -90 0 c-49 0 -90 -2 -90 -5z m353 -451 c33 -32 40 -70 36
-178 -4 -73 -7 -88 -28 -110 -29 -31 -90 -35 -146 -12 l-35 15 0 141 0 141 33
14 c54 24 110 19 140 -11z"/>
<path d="M915 1113 c-38 -10 -65 -36 -76 -72 -33 -109 103 -186 176 -99 30 35
33 92 9 127 -14 19 -75 54 -86 50 -2 -1 -12 -4 -23 -6z"/>
<path d="M1200 931 l0 -89 -50 -12 -50 -12 0 -64 0 -64 50 0 50 0 0 -148 c0
-210 18 -261 108 -306 35 -18 134 -24 190 -12 l32 8 0 69 0 69 -50 0 c-84 0
-90 13 -90 180 l0 140 70 0 71 0 -3 78 -3 77 -67 3 -68 3 0 84 0 85 -95 0 -95
0 0 -89z"/>
<path d="M845 837 c-3 -7 -4 -145 -3 -307 l3 -295 93 -3 92 -3 0 311 0 310
-90 0 c-64 0 -92 -4 -95 -13z"/>
<path d="M2360 602 c0 -237 1 -250 23 -292 33 -67 88 -94 192 -94 76 0 91 4
198 49 13 5 17 2 17 -14 0 -19 6 -21 65 -21 l65 0 -2 308 -3 307 -90 0 -90 0
-5 -225 -5 -224 -25 -13 c-14 -7 -46 -13 -71 -13 -77 0 -78 3 -81 256 l-3 219
-92 3 -93 3 0 -249z"/>
</g>
</svg>
