<?xml version="1.0" standalone="no"?>
<!DOCTYPE svg PUBLIC "-//W3C//DTD SVG 20010904//EN"
 "http://www.w3.org/TR/2001/REC-SVG-20010904/DTD/svg10.dtd">
<svg version="1.0" xmlns="http://www.w3.org/2000/svg"
 width="364.000000pt" height="366.000000pt" viewBox="0 0 364.000000 366.000000"
 preserveAspectRatio="xMidYMid meet">

<g transform="translate(0.000000,366.000000) scale(0.100000,-0.100000)"
fill="#000000" stroke="none">
<path d="M850 3295 l0 -225 75 0 74 0 3 73 3 72 68 3 67 3 0 -76 0 -75 75 0
75 0 0 225 0 225 -75 0 -75 0 0 -75 0 -75 -70 0 -70 0 0 75 0 75 -75 0 -75 0
0 -225z"/>
<path d="M1360 3445 l0 -74 68 -3 67 -3 3 -147 3 -148 74 0 75 0 0 150 0 150
65 0 65 0 0 75 0 75 -210 0 -210 0 0 -75z"/>
<path d="M1850 3295 l0 -225 75 0 74 0 3 107 3 107 51 -78 52 -78 46 71 c25
40 51 69 56 66 6 -3 10 -49 10 -101 l0 -94 70 0 70 0 0 225 0 225 -77 0 -78 0
-45 -75 c-25 -41 -48 -75 -51 -75 -4 0 -28 34 -54 75 l-46 75 -80 0 -79 0 0
-225z"/>
<path d="M2440 3295 l0 -225 185 0 185 0 0 70 0 69 -107 3 -108 3 -3 153 -3
152 -74 0 -75 0 0 -225z"/>
<path d="M634 2798 c3 -29 13 -134 21 -233 9 -99 22 -254 30 -345 8 -91 22
-239 30 -330 32 -354 46 -509 55 -615 26 -297 42 -473 55 -610 9 -82 15 -170
15 -195 0 -25 4 -50 8 -56 4 -6 174 -57 377 -113 204 -56 407 -113 452 -127
146 -43 143 -43 409 31 421 118 495 138 625 172 l95 25 18 192 c9 105 23 261
31 346 8 85 26 286 40 445 14 160 32 362 40 450 21 228 43 470 55 615 20 238
31 355 36 378 l4 22 -1201 0 -1200 0 5 -52z m2163 -180 c-3 -8 -6 -5 -6 6 -1
11 2 17 5 13 3 -3 4 -12 1 -19z m-910 -40 c-3 -8 -6 -5 -6 6 -1 11 2 17 5 13
3 -3 4 -12 1 -19z m0 -130 c-2 -24 -4 -7 -4 37 0 44 2 63 4 43 2 -21 2 -57 0
-80z m723 -99 c10 0 8 -4 -5 -9 -11 -5 -14 -9 -7 -9 6 -1 12 -6 12 -12 0 -5
-5 -7 -12 -3 -8 5 -9 -5 -5 -36 4 -29 2 -39 -4 -29 -6 10 -9 4 -9 -21 0 -26 3
-31 10 -20 8 13 10 12 10 -2 0 -10 -5 -18 -11 -18 -7 0 -9 -10 -5 -26 5 -18 3
-24 -5 -18 -9 5 -10 -3 -5 -31 5 -27 4 -40 -5 -46 -10 -6 -9 -10 5 -15 11 -4
22 -1 28 7 8 11 9 10 4 -3 -3 -10 -1 -18 4 -18 6 0 10 9 10 21 0 11 5 17 10
14 7 -4 6 -13 -1 -26 -10 -20 -18 -20 -68 -1 -9 3 -12 1 -7 -6 5 -8 -2 -10
-21 -7 -15 2 -274 7 -575 10 l-548 6 1 -43 c0 -24 6 -90 12 -148 l12 -105 210
1 c116 1 216 3 223 4 8 2 13 31 14 94 l2 91 5 -90 6 -90 312 0 c172 -1 316 -5
320 -9 5 -4 8 -41 8 -81 0 -40 -3 -68 -8 -62 -4 7 -6 -15 -5 -48 1 -33 -1 -66
-6 -73 -4 -6 -2 -12 3 -12 6 0 11 -5 11 -11 0 -5 -4 -7 -10 -4 -6 4 -8 -18 -5
-56 2 -44 0 -58 -7 -48 -6 10 -7 -1 -3 -35 4 -29 3 -46 -3 -42 -5 3 -10 -15
-10 -42 0 -98 -5 -158 -13 -179 -5 -14 -5 -23 1 -23 6 0 10 6 11 13 0 9 2 9 6
-1 2 -6 8 -10 12 -7 5 2 6 -8 3 -23 l-6 -27 -7 25 c-4 14 -7 19 -8 12 -1 -7
-5 -10 -11 -7 -6 4 -10 -8 -11 -27 -3 -89 1 -149 10 -167 12 -22 15 -42 3 -24
-6 9 -25 6 -76 -12 -38 -13 -73 -22 -78 -19 -4 3 -8 0 -8 -6 0 -7 -9 -9 -22
-5 -18 5 -20 4 -8 -4 8 -6 23 -8 34 -5 12 4 16 2 12 -5 -4 -7 1 -11 13 -11 29
0 34 -15 5 -16 -13 -1 -24 2 -24 6 0 4 -12 11 -27 14 -16 4 -36 9 -47 13 -13
4 -16 2 -11 -8 6 -9 4 -11 -8 -6 -9 3 -19 2 -23 -4 -3 -5 -15 -7 -26 -3 -15 4
-18 3 -13 -7 6 -9 4 -11 -8 -6 -9 3 -19 2 -22 -2 -3 -5 -13 -7 -23 -5 -9 3
-35 -3 -57 -12 -22 -10 -50 -19 -61 -20 -40 -5 -103 -24 -109 -34 -12 -19 -64
-8 -375 78 l-315 87 -16 175 c-10 96 -19 204 -21 240 l-3 65 153 3 c117 2 153
0 157 -10 2 -7 8 -62 12 -122 l8 -109 70 -19 c39 -10 112 -29 163 -43 85 -23
95 -24 128 -10 19 8 53 17 76 19 23 3 46 10 52 16 8 8 6 9 -8 4 -13 -5 -17 -4
-12 4 3 6 24 9 46 7 29 -3 42 1 50 13 7 13 9 14 10 2 0 -10 3 -11 12 -2 8 8 8
15 -2 27 -19 23 0 18 20 -5 12 -13 24 -18 36 -13 17 6 16 7 -2 14 -17 7 -16 8
6 8 20 1 22 3 10 11 -8 5 -10 10 -5 10 6 0 10 19 9 42 -1 24 4 46 10 50 8 5 7
8 -1 8 -7 0 -13 10 -13 23 0 18 2 19 10 7 7 -11 10 3 10 46 0 34 2 83 5 110 4
38 3 44 -4 27 -12 -28 -21 -30 -14 -5 4 18 -9 19 -244 25 -136 4 -364 7 -505
7 l-258 0 -4 23 c-3 12 -7 58 -10 102 -3 44 -12 154 -21 245 -19 210 -33 374
-41 473 l-7 77 397 0 c310 0 396 3 396 13 0 8 4 7 10 -3 8 -12 10 -12 10 -1 0
10 3 11 13 3 18 -15 648 -12 639 3 -3 5 1 4 10 -2 17 -14 32 -6 20 12 -4 6 2
1 13 -12 12 -13 27 -23 35 -24z m-407 -326 c-13 -2 -33 -2 -45 0 -13 2 -3 4
22 4 25 0 35 -2 23 -4z m392 -2 c3 -5 0 -13 -6 -17 -7 -4 -9 -3 -5 4 3 5 0 13
-6 15 -9 4 -10 6 -1 6 6 1 14 -3 18 -8z m52 -683 c-3 -8 -6 -5 -6 6 -1 11 2
17 5 13 3 -3 4 -12 1 -19z m-534 -28 c-3 -12 -8 -19 -11 -16 -5 6 5 36 12 36
2 0 2 -9 -1 -20z m-226 -142 c-2 -24 -4 -7 -4 37 0 44 2 63 4 43 2 -21 2 -57
0 -80z m256 97 c-3 -9 -8 -14 -10 -11 -3 3 -2 9 2 15 9 16 15 13 8 -4z m494
-17 c-3 -8 -6 -5 -6 6 -1 11 2 17 5 13 3 -3 4 -12 1 -19z m-120 -25 c-3 -10
-5 -4 -5 12 0 17 2 24 5 18 2 -7 2 -21 0 -30z m-630 -145 c-3 -7 -5 -2 -5 12
0 14 2 19 5 13 2 -7 2 -19 0 -25z m744 -49 c-5 -13 -10 -19 -10 -12 -1 15 10
45 15 40 3 -2 0 -15 -5 -28z m-681 1 c0 -5 -2 -10 -4 -10 -3 0 -8 5 -11 10 -3
6 -1 10 4 10 6 0 11 -4 11 -10z m-46 -8 c3 -5 -1 -9 -9 -9 -8 0 -12 4 -9 9 3
4 7 8 9 8 2 0 6 -4 9 -8z m-39 -22 c-3 -5 -12 -10 -18 -10 -7 0 -6 4 3 10 19
12 23 12 15 0z m665 -44 c0 -3 -4 -8 -10 -11 -5 -3 -10 -1 -10 4 0 6 5 11 10
11 6 0 10 -2 10 -4z m-232 -224 c8 -6 2 -9 -17 -9 -17 0 -28 4 -25 9 7 10 25
10 42 0z m-63 -12 c3 -5 1 -10 -4 -10 -6 0 -11 5 -11 10 0 6 2 10 4 10 3 0 8
-4 11 -10z m-125 -14 c0 -2 -7 -7 -16 -10 -8 -3 -12 -2 -9 4 6 10 25 14 25 6z
m-44 -25 c-3 -5 5 -12 19 -15 14 -4 25 -12 25 -18 0 -9 -3 -9 -12 0 -15 15
-42 16 -32 0 4 -7 3 -8 -5 -4 -6 4 -8 12 -5 18 5 8 1 9 -11 4 -15 -5 -16 -4
-5 9 13 16 35 21 26 6z m-126 -31 c-8 -5 -19 -10 -25 -10 -5 0 -3 5 5 10 8 5
20 10 25 10 6 0 3 -5 -5 -10z m87 2 c6 -4 -7 -8 -30 -8 -30 -1 -36 1 -22 7 26
10 37 10 52 1z m353 -142 c0 -5 -5 -10 -11 -10 -5 0 -7 5 -4 10 3 6 8 10 11
10 2 0 4 -4 4 -10z m-493 -77 c-3 -10 -5 -2 -5 17 0 19 2 27 5 18 2 -10 2 -26
0 -35z m250 31 c-3 -3 -12 -4 -19 -1 -8 3 -5 6 6 6 11 1 17 -2 13 -5z"/>
</g>
</svg>
