<?xml version="1.0" standalone="no"?>
<!DOCTYPE svg PUBLIC "-//W3C//DTD SVG 20010904//EN"
 "http://www.w3.org/TR/2001/REC-SVG-20010904/DTD/svg10.dtd">
<svg version="1.0" xmlns="http://www.w3.org/2000/svg"
 width="364.000000pt" height="366.000000pt" viewBox="0 0 364.000000 366.000000"
 preserveAspectRatio="xMidYMid meet">

<g transform="translate(0.000000,366.000000) scale(0.100000,-0.100000)"
fill="#000000" stroke="none">
<path d="M1608 3373 l-3 -148 -117 -3 -118 -3 0 -74 0 -75 210 0 210 0 0 225
0 225 -90 0 -89 0 -3 -147z"/>
<path d="M1860 3441 l0 -80 45 -35 c25 -20 66 -53 92 -73 l48 -38 -90 -5 -90
-5 -3 -67 -3 -68 216 0 215 0 0 70 0 69 -85 68 c-47 37 -85 71 -85 75 0 5 38
8 85 8 l85 0 0 80 0 80 -215 0 -215 0 0 -79z"/>
</g>
</svg>
