<?xml version="1.0" standalone="no"?>
<!DOCTYPE svg PUBLIC "-//W3C//DTD SVG 20010904//EN"
 "http://www.w3.org/TR/2001/REC-SVG-20010904/DTD/svg10.dtd">
<svg version="1.0" xmlns="http://www.w3.org/2000/svg"
 width="364.000000pt" height="366.000000pt" viewBox="0 0 364.000000 366.000000"
 preserveAspectRatio="xMidYMid meet">

<g transform="translate(0.000000,366.000000) scale(0.100000,-0.100000)"
fill="#000000" stroke="none">
<path d="M2340 3406 c0 -137 -4 -217 -10 -221 -6 -4 -27 3 -46 14 -48 28 -57
27 -128 -17 -34 -21 -96 -58 -139 -81 l-77 -43 2 -181 3 -181 144 -82 c88 -50
150 -80 159 -76 20 7 238 135 270 157 l22 16 0 398 c0 303 -3 401 -12 413 -14
17 -161 98 -178 98 -6 0 -10 -72 -10 -214z m-10 -471 c6 -7 10 -36 8 -65 -3
-50 -4 -52 -53 -80 l-51 -29 -52 30 -52 29 0 54 c0 58 5 65 69 101 l36 21 42
-23 c22 -13 46 -30 53 -38z"/>
<path d="M455 3147 l-140 -82 -3 -219 c-1 -121 1 -223 6 -228 7 -7 161 68 181
88 3 3 8 60 11 125 l5 120 47 27 47 27 47 -25 c60 -32 67 -48 60 -129 -3 -36
-2 -84 2 -105 7 -37 13 -43 91 -88 46 -26 88 -48 93 -48 4 0 7 102 6 227 l-3
228 -140 82 c-77 46 -147 83 -155 83 -8 -1 -78 -38 -155 -83z"/>
<path d="M2945 3174 c-50 -29 -97 -57 -105 -61 -8 -3 -32 -18 -52 -31 l-38
-25 0 -176 0 -177 144 -82 c80 -45 147 -82 150 -82 12 0 186 101 186 108 0 9
-103 72 -212 132 l-78 42 0 58 c0 62 2 64 66 99 l40 23 50 -29 c47 -28 49 -31
46 -69 -5 -71 6 -72 107 -14 l92 52 -3 61 -3 62 -125 72 c-177 102 -159 100
-265 37z"/>
</g>
</svg>
